PathFileType	4	(X/Y/Z)	D:\TRACE\v60_Jaco2_6-2-23\JustBodyDRS_Motion1_4-platform.trc
DataRate	CameraRate	NumFrames	NumMarkers	Units	OrigDataRate	OrigDataStartFrame	OrigNumFrames
100.00	100.00	      25	5	mm	100.00	1	      6956
Frame#	Time	Left_Front			Right_Front			Left_Aft			Right_Aft			Post			
		X1	Y1	Z1	X2	Y2	Z2	X3	Y3	Z3	X4	Y4	Z4	X5	Y5	Z5	

1	0.000	-800.53888	8.81981	-639.01959	769.49908	10.06295	-644.34424	-708.95734	8.11981	496.28415	726.77252	104.39348	664.85040	-14.26916	1307.98962	-961.97070	
2	0.010	-800.55542	8.74520	-638.96191	769.37793	10.11690	-644.39343	-708.90619	8.10383	496.29233	728.28290	84.35661	632.09827	-14.28950	1307.97607	-961.97668	
3	0.020	-800.56720	8.77243	-638.95203	769.37152	10.13636	-644.32916	-708.94006	8.08989	496.32019	729.72076	65.08192	600.59033	-14.31150	1307.98132	-961.94067	
4	0.030	-800.54309	8.75276	-639.03137	769.41608	10.08611	-644.36353	-708.91479	8.07569	496.28690	731.01379	47.33163	571.57080	-14.26065	1307.95972	-961.98053	
5	0.040	-800.57275	8.79574	-638.99408	769.40784	10.13404	-644.33685	-708.91803	8.12327	496.27820	732.08936	31.86791	546.28387	-14.26364	1307.97681	-961.96686	
6	0.050	-800.54840	8.78124	-638.96320	769.50934	10.09134	-644.35425	-708.89343	8.10316	496.25565	732.87512	19.45297	525.97382	-14.25662	1308.00293	-961.97961	
7	0.060	-800.57581	8.76730	-638.99231	769.47308	10.07080	-644.35529	-708.92548	8.09265	496.27335	733.29846	10.84899	511.88470	-14.21048	1307.96399	-961.97717	
8	0.070	-800.60437	8.79822	-638.92554	769.34753	10.09621	-644.35602	-708.96741	8.10914	496.31097	733.28705	6.81817	505.26086	-14.25136	1307.95325	-962.00720	
9	0.080	-800.59900	8.79668	-638.94012	769.44940	10.06543	-644.31671	-708.96210	8.08481	496.28009	733.04205	6.87798	505.30246	-14.15711	1307.90308	-961.98999	
10	0.090	-800.57166	8.81916	-638.95325	769.37347	10.11158	-644.37665	-708.95148	8.12539	496.31216	733.42072	6.91320	505.25534	-14.19714	1307.91821	-961.98743	
11	0.100	-800.55676	8.80691	-638.95410	769.53113	10.04799	-644.31097	-708.96112	8.13048	496.28607	733.24762	6.97558	505.30942	-14.21902	1307.92444	-961.97650	
12	0.110	-800.60571	8.75933	-638.95746	769.54956	10.06684	-644.30054	-708.93488	8.11802	496.28214	733.33051	6.99316	505.33670	-14.16159	1307.90881	-961.98291	
13	0.120	-800.58173	8.73428	-638.94226	769.39099	10.03367	-644.35040	-708.93256	8.09027	496.31961	733.14435	6.88808	505.36115	-14.17842	1307.88269	-961.95679	
14	0.130	-800.59052	8.78439	-638.97614	769.41241	10.08231	-644.33569	-708.94446	8.08809	496.31229	733.15973	6.91623	505.36456	-14.20208	1307.91150	-961.96417	
15	0.140	-800.58801	8.78361	-638.93390	769.49689	10.06928	-644.33588	-708.96539	8.12121	496.29376	733.19739	6.93279	505.31158	-14.19818	1307.90955	-961.96515	
16	0.150	-800.56226	8.84305	-638.93237	769.39020	10.09644	-644.38129	-708.93530	8.12680	496.27698	733.27350	7.01117	505.29153	-14.17350	1307.93359	-961.98297	
17	0.160	-800.55823	8.82729	-638.99658	769.44745	10.05915	-644.31293	-708.93811	8.08771	496.28732	733.34766	7.03726	505.31033	-14.23890	1307.98401	-961.97290	
18	0.170	-800.55194	8.77815	-638.96405	769.43237	10.09291	-644.31854	-708.90167	8.09581	496.29883	733.24725	7.02029	505.30618	-14.24816	1307.95129	-961.94434	
19	0.180	-800.54858	8.73208	-638.98138	769.43365	10.06067	-644.33441	-708.93207	8.09560	496.30182	733.26044	6.94285	505.31537	-14.33442	1307.96533	-961.97113	
20	0.190	-800.59186	8.82460	-638.92218	769.47803	10.07493	-644.33624	-708.92542	8.07507	496.30988	733.50049	6.97086	505.28949	-14.24639	1308.00183	-962.00000	
21	0.200	-800.57031	8.78020	-638.99707	769.46924	10.07903	-644.36298	-708.92456	8.14711	496.29980	733.26788	7.01136	505.29620	-14.19805	1307.97400	-962.02692	
22	0.210	-800.54907	8.79189	-638.98834	769.32526	10.08102	-644.41296	-708.94141	8.14412	496.26913	733.29138	7.04578	505.29205	-14.23969	1307.98779	-962.01569	
23	0.220	-800.58636	8.81126	-638.94592	769.34802	10.09836	-644.37970	-708.97614	8.17581	496.30325	733.16974	6.96442	505.32254	-14.28158	1307.95959	-961.98688	
24	0.230	-800.54700	8.79343	-638.96387	769.35651	10.09697	-644.39026	-708.95367	8.08727	496.30188	733.14380	6.93535	505.32117	-14.27057	1307.96655	-962.00623	
25	0.240	-800.56610	8.81446	-638.96552	769.45770	10.06414	-644.34656	-708.90314	8.06399	496.31168	733.21716	6.95162	505.29358	-14.25461	1307.95874	-961.97644	
